<svg viewBox="0 0 36 36" xmlns="http://www.w3.org/2000/svg" fill-rule="evenodd" clip-rule="evenodd" stroke-linejoin="round" stroke-miterlimit="2">
    <path d="M17.75 0C27.546 0 35.5 7.954 35.5 17.75S27.546 35.5 17.75 35.5 0 27.546 0 17.75 7.954 0 17.75 0zm9.432 24.344c.15.15.199.299.199.498a.64.64 0 01-.199.498l-1.891 1.842c-.15.149-.25.199-.449.199a.638.638 0 01-.497-.199l-6.521-6.521-6.521 6.521c-.149.149-.249.199-.448.199a.64.64 0 01-.498-.199L8.466 25.34a.638.638 0 01-.199-.498.64.64 0 01.199-.498l6.57-6.52-6.57-6.471c-.249-.249-.249-.747 0-.995l1.842-1.892c.15-.099.299-.199.498-.199s.348.05.497.199l6.521 6.471 6.521-6.471c.149-.099.298-.199.497-.199a.64.64 0 01.498.199l1.842 1.892a.692.692 0 010 .946l-6.57 6.47 6.57 6.57z" fill="#fe467a"/>
</svg>
