<svg viewBox="0 0 36 36" xmlns="http://www.w3.org/2000/svg" fill-rule="evenodd" clip-rule="evenodd" stroke-linejoin="round" stroke-miterlimit="2">
    <path d="M17.727 0c9.783 0 17.726 7.943 17.726 17.727 0 9.783-7.943 17.726-17.726 17.726C7.943 35.453 0 27.51 0 17.727 0 7.943 7.943 0 17.727 0zm11.344 11.091c.053.106.106.211.106.317 0 .106-.053.212-.106.318L15.903 28.647c-.105.106-.264.318-.476.318-.211 0-.423-.159-.529-.265-.105-.106-7.456-7.192-7.456-7.192l-.159-.159c-.054-.106-.106-.212-.106-.317 0-.106.053-.159.106-.265l.105-.106c.741-.794 2.221-2.327 2.327-2.432.106-.106.212-.318.423-.318.212 0 .423.212.529.318.106.105 4.23 4.124 4.23 4.124l10.577-13.59c.105-.106.211-.106.317-.106.106 0 .265.053.37.106l2.91 2.328z" fill="#31c3bc"/>
</svg>
