<svg width="123" height="124" xmlns="http://www.w3.org/2000/svg" fill-rule="evenodd" clip-rule="evenodd" stroke-linecap="round" stroke-linejoin="round" stroke-miterlimit="1.5">
    <g fill="none">
        <path d="M61.303 2.683l58.157 28.748v59.885l-57.459 29.311-59.318-30.03.105-58.776L61.303 2.683z" stroke="#7322b1" stroke-width="5.37"/>
        <g stroke="#f7cf56" stroke-width="2.5">
            <path d="M74.364 88.701l-13.065 6.07-13.31-6.518m-.441-.068v14.241m.007.026l13.589 6.626m13.632-6.626l-13.467 6.716m-13.66-20.959l13.654-6.725"/>
            <path d="M61.303 81.484l13.416 6.651.024 14.292M61.203 95.2v13.673m13.161-54.122l-13.196 6.134-13.179-6.582m-.441-.068v14.241m.007.026l13.942 6.726m13.279-6.726l-13.117 6.675m-14.01-20.919l13.654-6.724"/>
            <path d="M61.303 47.534l13.416 6.651.024 14.292m-13.482-7.173v13.674m47.468-36.653l-12.783 6.49-13.592-6.938m-.441-.068v7.65m4.343 8.709l9.606 4.634m13.279-6.726l-13.117 6.675m-14.01-20.919l13.655-6.724"/>
            <path d="M95.669 31.108l13.415 6.65.024 14.293m-13.246-7.173v13.674m12.867 13.215l-12.783 6.491-13.592-6.939m-.441-.067v7.65m4.343 8.708l9.606 4.634m13.279-6.725l-13.117 6.674m-14.01-20.918l13.655-6.725"/>
            <path d="M95.669 64.55l13.415 6.651.024 14.292M95.862 78.32v13.674M39.958 38.325l-12.784 6.49-13.592-6.938m-.441-.068v14.24m.008.027l13.941 6.726m9.327-4.714l-9.164 4.663m-14.01-20.919l13.654-6.724"/>
            <path d="M26.897 31.108l13.416 6.65.024 7.536m-13.246-.416v13.674M39.958 71.767l-12.784 6.491-13.592-6.939m-.441-.067v14.24m.008.027l13.941 6.725m9.327-4.714l-9.164 4.663m-14.01-20.918l13.654-6.725"/>
            <path d="M26.897 64.55l13.416 6.651.024 7.535m-13.246-.416v13.674M74.381 20.801L61.21 27.238l-13.205-6.885m-.441-.068v8.676m5.352 8.169l8.597 4.148m8.365-4.225l-8.202 4.174m-14.01-20.919l13.654-6.724"/>
            <path d="M61.32 13.584l13.416 6.65.024 8.685m-13.507-1.565v13.673M54.091 31.131l-9.353 4.729M87.59 48.145l-8.527 4.312M87.59 81.79l-8.527 4.311M35.108 47.95l8.157 4.032m-8.157 29.613l8.157 4.032M69.03 31.176l8.769 4.388"/>
        </g>
    </g>
</svg>
