<svg width="122" height="24" xmlns="http://www.w3.org/2000/svg" fill-rule="evenodd" clip-rule="evenodd" stroke-linejoin="round" stroke-miterlimit="2">
    <path d="M40.988 19.237H39.77l-8.3-12.34v12.34h-1.22V4.807h1.218l8.321 12.36V4.807h1.198v14.43zm4.729 0h-1.198V8.521h1.198v10.716zm-1.4-13.821c0-.223.06-.426.202-.568a.795.795 0 01.61-.244c.243 0 .446.081.588.244.162.142.223.345.223.568a.75.75 0 01-.223.568.812.812 0 01-.589.223.862.862 0 01-.609-.223.816.816 0 01-.203-.568zM57.55 13.98c0 1.685-.365 3.004-1.095 3.979-.751.994-1.746 1.481-2.984 1.481-1.502 0-2.618-.568-3.389-1.664l-.06 1.461h-1.097V4.015h1.177v6.049c.751-1.157 1.867-1.746 3.35-1.746 1.257 0 2.272.487 3.003 1.441.73.974 1.096 2.314 1.096 4.039v.183zm-1.176-.202c0-1.421-.284-2.497-.832-3.268-.548-.771-1.32-1.157-2.314-1.157-.751 0-1.4.183-1.928.548-.528.386-.934.934-1.198 1.644v4.83c.589 1.36 1.644 2.03 3.146 2.03.974 0 1.746-.386 2.294-1.157s.832-1.928.832-3.47zm12.426.202c0 1.685-.366 3.004-1.096 3.979-.751.994-1.746 1.481-2.984 1.481-1.502 0-2.618-.568-3.39-1.664l-.06 1.461h-1.096V4.015h1.177v6.049c.751-1.157 1.867-1.746 3.349-1.746 1.258 0 2.273.487 3.004 1.441.73.974 1.096 2.314 1.096 4.039v.183zm-1.177-.202c0-1.421-.285-2.497-.833-3.268-.548-.771-1.319-1.157-2.313-1.157-.751 0-1.4.183-1.928.548-.528.386-.934.934-1.198 1.644v4.83c.589 1.36 1.644 2.03 3.146 2.03.974 0 1.745-.386 2.293-1.157s.833-1.928.833-3.47zm11.024 1.664c0-.548-.203-.974-.59-1.279-.405-.304-1.115-.629-2.15-.954-1.015-.345-1.847-.67-2.436-.994-1.644-.873-2.456-2.07-2.456-3.572 0-.771.203-1.482.65-2.09.446-.61 1.075-1.076 1.887-1.421.832-.345 1.746-.528 2.78-.528 1.036 0 1.95.183 2.761.568.792.366 1.42.893 1.867 1.583.447.67.67 1.441.67 2.314h-2.963c0-.67-.223-1.177-.63-1.542-.426-.366-.994-.548-1.765-.548-.71 0-1.279.162-1.685.466-.406.305-.608.71-.608 1.218 0 .467.243.853.71 1.177.467.305 1.177.61 2.09.893 1.685.508 2.923 1.137 3.694 1.888.771.75 1.157 1.684 1.157 2.8 0 1.259-.467 2.233-1.42 2.943-.934.71-2.213 1.076-3.816 1.076-1.096 0-2.111-.203-3.024-.609-.914-.406-1.604-.974-2.09-1.684-.488-.69-.711-1.522-.711-2.456h2.983c0 1.603.954 2.395 2.842 2.395.71 0 1.258-.142 1.664-.426.386-.285.589-.69.589-1.218zm8.235-9.559V8.52h1.826v2.09h-1.826v5.359c0 .385.08.67.223.852.162.162.446.264.872.264.325 0 .61-.04.853-.081v2.171a5.6 5.6 0 01-1.746.264c-2.009 0-3.024-1.015-3.064-3.044v-5.784h-1.563v-2.09h1.563v-2.64h2.862zm9.638 13.354a3.544 3.544 0 01-.284-.954c-.69.772-1.583 1.157-2.7 1.157-1.055 0-1.927-.304-2.617-.913a2.94 2.94 0 01-1.035-2.294c0-1.136.426-2.009 1.258-2.618.852-.609 2.07-.913 3.653-.933h1.32v-.61c0-.486-.122-.892-.366-1.197-.264-.284-.67-.446-1.218-.446-.487 0-.852.122-1.136.345a1.256 1.256 0 00-.406.954h-2.862c0-.61.183-1.198.568-1.725.386-.528.934-.934 1.624-1.238.71-.305 1.502-.447 2.375-.447 1.319 0 2.354.325 3.146.995.77.67 1.156 1.603 1.156 2.8v4.648c0 1.015.142 1.786.427 2.314v.162H96.52zm-2.354-1.989a2.5 2.5 0 001.157-.284 1.78 1.78 0 00.791-.75v-1.848H95.06c-1.441 0-2.212.487-2.293 1.482l-.02.162c0 .365.141.65.385.893.243.223.588.345 1.035.345zm11.489-.122c.528 0 .954-.142 1.279-.426.345-.304.507-.69.527-1.177h2.68c0 .73-.204 1.4-.59 2.01-.385.608-.933 1.075-1.603 1.4-.67.345-1.42.507-2.252.507-1.523 0-2.74-.487-3.613-1.461-.893-.974-1.34-2.334-1.34-4.039v-.203c0-1.644.447-2.963 1.32-3.937.872-.995 2.09-1.482 3.612-1.482 1.34 0 2.416.386 3.227 1.137.812.77 1.218 1.786 1.238 3.044h-2.679c-.02-.548-.182-.994-.527-1.34-.325-.345-.751-.527-1.3-.527-.669 0-1.176.243-1.521.73-.325.488-.508 1.28-.508 2.375v.284c0 1.116.183 1.908.508 2.375.345.487.852.73 1.542.73zm10.016-2.191l-1.035 1.035v3.267h-2.862V4.015h2.862v8.443l.568-.73 2.74-3.207h3.43l-3.876 4.465 4.221 6.251h-3.288l-2.76-4.302z" fill="#fff" fill-rule="nonzero"/>
    <path d="M21.686 23.449H0V0h21.686v23.449zM4.713 1.902H1.759v19.645h12.196l-4.051-4.383H6.207V9.829l10.708 11.718h3.012V1.902H7.672l4.11 4.447h3.697v7.334L4.713 1.902z" fill="#fff"/>
</svg>
