<svg width="121" height="24" xmlns="http://www.w3.org/2000/svg" fill-rule="evenodd" clip-rule="evenodd" stroke-linejoin="round" stroke-miterlimit="2">
    <g fill="#fff">
        <path d="M41.446 19.236h-2.973l-5.787-9.494v9.494h-2.973V4.807h2.973l5.797 9.514V4.807h2.963v14.429zm5.431 0h-2.874V8.514h2.874v10.722zM43.835 5.739c0-.43.143-.783.431-1.061.287-.277.679-.416 1.174-.416.489 0 .879.139 1.17.416.29.278.436.631.436 1.061 0 .436-.147.793-.441 1.07-.294.278-.683.416-1.165.416s-.87-.138-1.164-.416c-.294-.277-.441-.634-.441-1.07zm15.063 8.235c0 1.718-.367 3.057-1.1 4.019-.733.961-1.757 1.441-3.072 1.441-1.163 0-2.091-.446-2.785-1.337l-.129 1.139h-2.576V4.014H52.1v5.461c.66-.773 1.529-1.16 2.606-1.16 1.308 0 2.334.481 3.077 1.442.743.962 1.115 2.314 1.115 4.058v.159zm-2.864-.208c0-1.084-.172-1.875-.515-2.374-.344-.498-.856-.748-1.536-.748-.912 0-1.54.374-1.883 1.12v4.232c.35.753.984 1.129 1.902 1.129.925 0 1.533-.455 1.824-1.367.139-.436.208-1.1.208-1.992zm14.29.208c0 1.718-.367 3.057-1.1 4.019-.733.961-1.757 1.441-3.072 1.441-1.163 0-2.091-.446-2.785-1.337l-.128 1.139h-2.577V4.014h2.864v5.461c.661-.773 1.529-1.16 2.606-1.16 1.308 0 2.334.481 3.077 1.442.744.962 1.115 2.314 1.115 4.058v.159zm-2.864-.208c0-1.084-.172-1.875-.515-2.374-.344-.498-.856-.748-1.536-.748-.912 0-1.54.374-1.883 1.12v4.232c.35.753.984 1.129 1.903 1.129.925 0 1.532-.455 1.823-1.367.139-.436.208-1.1.208-1.992zm10.435 2.507c0-.35-.173-.626-.52-.827-.347-.202-.903-.382-1.67-.54-2.55-.536-3.825-1.619-3.825-3.251 0-.951.395-1.746 1.184-2.383.79-.638 1.822-.957 3.097-.957 1.361 0 2.45.321 3.266.962.815.641 1.223 1.473 1.223 2.497h-2.864c0-.41-.132-.748-.396-1.016-.264-.267-.677-.401-1.239-.401-.482 0-.855.109-1.12.327a1.032 1.032 0 00-.396.832c0 .317.15.573.451.768.301.195.808.364 1.521.506.714.142 1.315.302 1.804.48 1.513.555 2.269 1.517 2.269 2.884 0 .978-.419 1.769-1.258 2.374-.839.604-1.923.906-3.251.906-.898 0-1.696-.16-2.393-.48-.697-.321-1.244-.76-1.64-1.318a3.06 3.06 0 01-.595-1.809h2.715c.027.509.215.899.565 1.17.35.27.82.406 1.408.406.548 0 .962-.104 1.243-.312a.971.971 0 00.421-.818zm8.057-10.395v2.636h1.834v2.101h-1.834v5.351c0 .396.076.68.228.852.152.172.443.258.872.258.317 0 .598-.023.843-.07v2.171a5.893 5.893 0 01-1.735.257c-2.008 0-3.032-1.014-3.072-3.042v-5.777h-1.566V8.514h1.566V5.878h2.864zm9.643 13.358a3.193 3.193 0 01-.288-.961c-.693.773-1.595 1.159-2.705 1.159-1.051 0-1.921-.303-2.611-.911-.691-.608-1.036-1.374-1.036-2.299 0-1.137.421-2.009 1.263-2.617.843-.607 2.06-.915 3.652-.921h1.318v-.615c0-.495-.127-.892-.381-1.189-.255-.297-.656-.446-1.204-.446-.483 0-.861.116-1.135.347-.274.231-.411.548-.411.951h-2.864c0-.621.191-1.195.575-1.724.383-.529.925-.943 1.625-1.244.7-.3 1.486-.451 2.358-.451 1.322 0 2.371.332 3.147.996.776.664 1.164 1.598 1.164 2.8v4.648c.007 1.017.149 1.787.426 2.309v.168h-2.893zm-2.369-1.992c.423 0 .813-.094 1.17-.282.356-.188.621-.441.792-.758v-1.843h-1.07c-1.434 0-2.197.495-2.289 1.486l-.01.168c0 .357.125.651.377.882.251.232.594.347 1.03.347zm11.496-.119c.528 0 .958-.145 1.288-.436.33-.29.502-.677.515-1.159h2.686a3.677 3.677 0 01-.595 1.997 3.924 3.924 0 01-1.6 1.407c-.677.334-1.425.5-2.245.5-1.532 0-2.741-.487-3.627-1.461-.885-.975-1.328-2.321-1.328-4.039v-.188c0-1.652.44-2.97 1.318-3.954.879-.984 2.085-1.477 3.618-1.477 1.341 0 2.416.382 3.225 1.145.81.763 1.221 1.779 1.234 3.047h-2.686c-.013-.555-.185-1.006-.515-1.352-.33-.347-.766-.521-1.308-.521-.667 0-1.171.243-1.511.729-.341.485-.511 1.273-.511 2.363v.298c0 1.103.169 1.896.506 2.378.337.482.849.723 1.536.723zm10.019-2.19l-1.031 1.031v3.27h-2.864V4.014h2.864v8.434l.555-.714 2.745-3.22h3.439l-3.875 4.469 4.212 6.253h-3.29l-2.755-4.301z" fill-rule="nonzero"/>
        <path d="M21.686 23.449H0V0h21.686v23.449zM4.713 1.902H1.759v19.645h12.196l-4.051-4.383H6.207V9.829l10.708 11.718h3.012V1.902H7.673l4.109 4.447h3.697v7.334L4.713 1.902z"/>
    </g>
</svg>
