<svg width="123" height="124" viewBox="0 0 123 124" xmlns="http://www.w3.org/2000/svg" fill-rule="evenodd" clip-rule="evenodd" stroke-linecap="round" stroke-linejoin="round" stroke-miterlimit="1.5">
    <g fill="none">
        <path d="M61.303 2.683l58.157 28.748v59.885l-57.459 29.311-59.318-30.03.105-58.776L61.303 2.683z" stroke="#7322b1" stroke-width="5.37"/>
        <g stroke="#f7cf56" stroke-width="2.9">
            <path d="M31.322 86.955l-7.526 3.826-11.046-5.434.525-48.592 48.587-23.788 10.027 4.993-.032 7.897"/>
            <path d="M49.766 96.543l-7.343 3.733-11.046-5.434.525-48.592L80.49 22.462l10.026 4.993s-.032 7.592-.032 8.777"/>
            <path d="M50.167 104.393l.525-48.593 48.587-23.788 10.026 4.994s.014 33.059-.031 48.385l-48.061 24.436-11.046-5.434zM24.001 41.887l-10.726-5.132M42.628 51.382L31.902 46.25M61.417 60.932L50.692 55.8M23.796 90.609l.076-48.631 47.226-23.153"/>
            <path d="M42.423 100.103l.077-48.63L89.725 28.32"/>
            <path d="M61.213 109.654l.076-48.63 47.226-23.153"/>
        </g>
    </g>
</svg>
