<svg width="123" height="124" xmlns="http://www.w3.org/2000/svg" fill-rule="evenodd" clip-rule="evenodd" stroke-linecap="round" stroke-linejoin="round" stroke-miterlimit="1.5">
    <g fill="none">
        <g stroke="#f7cf56" stroke-width="2.42">
            <path d="M20.642 70.594l-7.787 3.882.123 10.412 48.428 25.107 47.84-25.208.084-10.037-7.686-3.94"/>
            <path d="M12.999 74.706l48.358 25.208 47.954-25.147M61.354 108.91l-.001-8.548"/>
            <path d="M20.923 52.265l-7.924 4.016.181 10.144 48.536 25.226L109.203 66.3l.278-10.058-7.735-3.967"/>
            <path d="M12.999 56.281l48.358 25.208 47.954-25.147M61.354 90.485l-.001-8.549"/>
            <path d="M61.563 13.449L12.999 38.063l.181 10.144 48.536 25.226 47.487-25.351.16-9.929-47.8-24.704z"/>
            <path d="M12.999 38.063l48.358 25.208 47.954-25.147M61.354 72.863l-.001-8.549"/>
        </g>
        <path d="M61.303 2.683l58.157 28.748v59.885l-57.459 29.311-59.318-30.03.105-58.776L61.303 2.683z" stroke="#7322b1" stroke-width="5.37"/>
    </g>
</svg>
